# xmcd
#
# Track frame offsets:
#	150
#	20030
#	42580
#	70680
#	94575
#	122490
#	146172
#	161330
#	202517
#
# Disc length: 3231 seconds
#
# Revision: 0
# Processed by: cddbd v1.5.1PL0 Copyright (c) Steve Scherf et al.
# Submitted via: dBpowerAMP V4.0
#
DISCID=710c9d09
DTITLE=Frimer Band - Second Live
DYEAR=1999
DGENRE=Blues
TTITLE0=Circlin'
TTITLE1=Sheltered Roads
TTITLE2=Black Cat Bone
TTITLE3=Cool Equation
TTITLE4=Stucco's Floor
TTITLE5=You Better Use Your Soul
TTITLE6=Queen Of Saturday Nights
TTITLE7=The Moon Is Full and Runnin' The Blues
TTITLE8=Husled Down In Texas
EXTD=It's A Daish Blues Band
EXTT0=
EXTT1=
EXTT2=
EXTT3=
EXTT4=
EXTT5=
EXTT6=
EXTT7=
EXTT8=
PLAYORDER=
